<?xml version="1.0" standalone="no"?><svg xmlns="http://www.w3.org/2000/svg" viewBox="0 0 1440 320"><path fill="#ffa98c" fill-opacity="1" d="M0,0L26.7,0C53.3,0,107,0,160,53.3C213.3,107,267,213,320,240C373.3,267,427,213,480,170.7C533.3,128,587,96,640,101.3C693.3,107,747,149,800,138.7C853.3,128,907,64,960,69.3C1013.3,75,1067,149,1120,197.3C1173.3,245,1227,267,1280,240C1333.3,213,1387,139,1413,101.3L1440,64L1440,320L1413.3,320C1386.7,320,1333,320,1280,320C1226.7,320,1173,320,1120,320C1066.7,320,1013,320,960,320C906.7,320,853,320,800,320C746.7,320,693,320,640,320C586.7,320,533,320,480,320C426.7,320,373,320,320,320C266.7,320,213,320,160,320C106.7,320,53,320,27,320L0,320Z"></path></svg>